<svg xmlns="http://www.w3.org/2000/svg" viewBox="0 0 128 128">
  <rect width="128" height="128" rx="20" ry="20" fill="#7C3AED"/>
  <path d="M64 16 L108 32 L108 68 C108 92 88 108 64 116 C40 108 20 92 20 68 L20 32 Z" fill="#9333EA" stroke="#A855F7" stroke-width="2"/>
  <path d="M64 24 L100 38 L100 68 C100 88 82 102 64 108 C46 102 28 88 28 68 L28 38 Z" fill="#7C3AED"/>
  <ellipse cx="64" cy="54" rx="22" ry="24" fill="#FBBF24"/>
  <ellipse cx="64" cy="54" rx="16" ry="18" fill="#FDE68A"/>
  <ellipse cx="64" cy="50" rx="10" ry="12" fill="#FEF3C7"/>
  <ellipse cx="56" cy="46" rx="4" ry="6" fill="#FFFBEB" opacity="0.6"/>
  <rect x="54" y="76" width="20" height="5" rx="2" fill="#D1D5DB"/>
  <rect x="56" y="81" width="16" height="4" rx="2" fill="#9CA3AF"/>
  <rect x="58" y="85" width="12" height="4" rx="2" fill="#6B7280"/>
  <g stroke="#FDE68A" stroke-width="3" stroke-linecap="round" opacity="0.9">
    <line x1="64" y1="20" x2="64" y2="28"/>
    <line x1="88" y1="40" x2="94" y2="34"/>
    <line x1="34" y1="34" x2="40" y2="40"/>
  </g>
</svg>
