<svg xmlns="http://www.w3.org/2000/svg" viewBox="0 0 128 128">
  <defs>
    <linearGradient id="bgGrad" x1="0%" y1="0%" x2="100%" y2="100%">
      <stop offset="0%" style="stop-color:#1a1a2e"/>
      <stop offset="50%" style="stop-color:#16213e"/>
      <stop offset="100%" style="stop-color:#0f3460"/>
    </linearGradient>
    <linearGradient id="bulbGrad" x1="0%" y1="0%" x2="0%" y2="100%">
      <stop offset="0%" style="stop-color:#FFE066"/>
      <stop offset="100%" style="stop-color:#FFB800"/>
    </linearGradient>
    <radialGradient id="glowGrad" cx="50%" cy="40%" r="60%">
      <stop offset="0%" style="stop-color:#FFE066;stop-opacity:0.5"/>
      <stop offset="100%" style="stop-color:#FFE066;stop-opacity:0"/>
    </radialGradient>
  </defs>
  
  <rect x="4" y="4" width="120" height="120" rx="20" fill="url(#bgGrad)"/>
  
  <g opacity="0.08" stroke="#4CC9F0" stroke-width="0.5">
    <line x1="24" y1="4" x2="24" y2="124"/><line x1="44" y1="4" x2="44" y2="124"/>
    <line x1="64" y1="4" x2="64" y2="124"/><line x1="84" y1="4" x2="84" y2="124"/>
    <line x1="104" y1="4" x2="104" y2="124"/>
    <line x1="4" y1="24" x2="124" y2="24"/><line x1="4" y1="44" x2="124" y2="44"/>
    <line x1="4" y1="64" x2="124" y2="64"/><line x1="4" y1="84" x2="124" y2="84"/>
    <line x1="4" y1="104" x2="124" y2="104"/>
  </g>
  
  <ellipse cx="36" cy="44" rx="26" ry="28" fill="url(#glowGrad)"/>
  
  <path d="M36 20 C50 20 54 32 54 42 C54 50 48 56 44 60 L44 66 L28 66 L28 60 C24 56 18 50 18 42 C18 32 22 20 36 20Z" 
        fill="url(#bulbGrad)" stroke="#FFF" stroke-width="1.5"/>
  <ellipse cx="28" cy="36" rx="5" ry="8" fill="#FFF" opacity="0.35"/>
  
  <g stroke="#FF6B35" stroke-width="2" stroke-linecap="round" fill="none">
    <path d="M30 36 C33 30 39 30 42 36"/>
    <path d="M28 44 C33 38 39 38 44 44"/>
    <line x1="36" y1="28" x2="36" y2="34"/>
    <circle cx="36" cy="40" r="2.5" fill="#FF6B35" stroke="none"/>
  </g>
  
  <rect x="29" y="66" width="14" height="4" fill="#E5E5E5" rx="1"/>
  <rect x="31" y="70" width="10" height="3" fill="#CCCCCC" rx="1"/>
  <rect x="33" y="73" width="6" height="3" fill="#AAAAAA" rx="1"/>
  
  <g stroke="#FFE066" stroke-width="2.5" stroke-linecap="round">
    <line x1="36" y1="8" x2="36" y2="14"/>
    <line x1="14" y1="28" x2="8" y2="22"/>
    <line x1="58" y1="28" x2="64" y2="22"/>
    <line x1="10" y1="48" x2="4" y2="48"/>
  </g>
  <circle cx="20" cy="16" r="2" fill="#FFE066"/>
  <circle cx="52" cy="14" r="1.5" fill="#FFE066"/>
  
  <g fill="none" stroke="#FFF" stroke-width="2" stroke-linecap="round" opacity="0.7">
    <path d="M58 46 L72 46" stroke-dasharray="4,3"/>
    <path d="M68 42 L74 46 L68 50"/>
  </g>
  <circle cx="64" cy="46" r="2" fill="#4CC9F0" opacity="0.7"/>
  
  <rect x="76" y="18" width="42" height="54" rx="4" fill="#1E1E1E" stroke="#4CC9F0" stroke-width="2"/>
  <rect x="80" y="26" width="34" height="38" rx="2" fill="#0D1117"/>
  
  <circle cx="83" cy="22" r="2" fill="#FF5F56"/>
  <circle cx="89" cy="22" r="2" fill="#FFBD2E"/>
  <circle cx="95" cy="22" r="2" fill="#27CA40"/>
  
  <rect x="83" y="30" width="12" height="2.5" rx="1" fill="#569CD6"/>
  <rect x="97" y="30" width="8" height="2.5" rx="1" fill="#CE9178"/>
  <rect x="86" y="35" width="8" height="2.5" rx="1" fill="#4EC9B0"/>
  <rect x="96" y="35" width="12" height="2.5" rx="1" fill="#DCDCAA"/>
  <rect x="86" y="40" width="14" height="2.5" rx="1" fill="#C586C0"/>
  <rect x="83" y="45" width="6" height="2.5" rx="1" fill="#569CD6"/>
  <rect x="91" y="45" width="14" height="2.5" rx="1" fill="#9CDCFE"/>
  <rect x="86" y="50" width="6" height="2.5" rx="1" fill="#6A9955"/>
  <rect x="83" y="55" width="4" height="2.5" rx="1" fill="#569CD6"/>
  <rect x="89" y="55" width="2" height="2.5" fill="#FFF" opacity="0.9"/>
  
  <rect x="93" y="72" width="8" height="5" fill="#4CC9F0"/>
  <rect x="89" y="77" width="16" height="3" rx="1" fill="#4CC9F0"/>
  
  <g fill="#FFE066">
    <circle cx="110" cy="22" r="3.5"/>
    <rect x="109" y="16" width="2" height="3"/>
    <rect x="109" y="26" width="2" height="3"/>
    <rect x="104" y="21" width="3" height="2"/>
    <rect x="113" y="21" width="3" height="2"/>
  </g>
  
  <rect x="20" y="96" width="88" height="3" rx="1.5" fill="#333"/>
  <circle cx="32" cy="97.5" r="3.5" fill="#555" stroke="#777" stroke-width="1"/>
  <circle cx="52" cy="97.5" r="3.5" fill="#555" stroke="#777" stroke-width="1"/>
  <circle cx="72" cy="97.5" r="3.5" fill="#555" stroke="#777" stroke-width="1"/>
  <circle cx="92" cy="97.5" r="4.5" fill="#22C55E" stroke="#FFF" stroke-width="1.5"/>
  <path d="M89 97.5 L91 99.5 L95 95.5" fill="none" stroke="#FFF" stroke-width="1.5" stroke-linecap="round" stroke-linejoin="round"/>
  
  <rect x="56" y="106" width="16" height="12" rx="2" fill="#4CC9F0"/>
  <rect x="59" y="106" width="10" height="5" fill="#1E1E1E"/>
  <rect x="61" y="112" width="6" height="4" fill="#1E1E1E"/>
</svg>
