<svg xmlns="http://www.w3.org/2000/svg" viewBox="0 0 128 128">
  <rect width="128" height="128" rx="20" ry="20" fill="#7C3AED"/>
  <path d="M64 12 L112 30 L112 70 C112 96 90 114 64 122 C38 114 16 96 16 70 L16 30 Z" fill="#9333EA" stroke="#A855F7" stroke-width="2"/>
  <path d="M64 20 L104 36 L104 70 C104 92 84 108 64 114 C44 108 24 92 24 70 L24 36 Z" fill="#7C3AED"/>
  <ellipse cx="64" cy="58" rx="20" ry="22" fill="#FBBF24"/>
  <ellipse cx="64" cy="58" rx="14" ry="16" fill="#FDE68A"/>
  <ellipse cx="64" cy="54" rx="8" ry="10" fill="#FEF3C7"/>
  <ellipse cx="57" cy="50" rx="3" ry="5" fill="#FFFBEB" opacity="0.6"/>
  <rect x="55" y="78" width="18" height="4" rx="2" fill="#D1D5DB"/>
  <rect x="57" y="82" width="14" height="3" rx="1.5" fill="#9CA3AF"/>
  <rect x="59" y="85" width="10" height="3" rx="1.5" fill="#6B7280"/>
  <g stroke="#FDE68A" stroke-width="2.5" stroke-linecap="round" opacity="0.9">
    <line x1="64" y1="28" x2="64" y2="34"/>
    <line x1="84" y1="44" x2="90" y2="38"/>
    <line x1="38" y1="38" x2="44" y2="44"/>
    <line x1="92" y1="58" x2="98" y2="58"/>
    <line x1="30" y1="58" x2="36" y2="58"/>
  </g>
</svg>
